<svg width="1200" height="720" viewBox="0 0 1200 720" fill="none" xmlns="http://www.w3.org/2000/svg">
  <rect width="1200" height="720" rx="28" fill="#F8FAFC"/>
  <rect x="24" y="24" width="1152" height="672" rx="24" stroke="#CBD5E1" stroke-width="2"/>
  <rect x="72" y="94" width="332" height="532" rx="24" fill="#FFFFFF" stroke="#E2E8F0" stroke-width="2"/>
  <rect x="434" y="94" width="332" height="532" rx="24" fill="#FFFFFF" stroke="#E2E8F0" stroke-width="2"/>
  <rect x="796" y="94" width="332" height="532" rx="24" fill="#FFFFFF" stroke="#E2E8F0" stroke-width="2"/>
  <text x="108" y="144" fill="#0F172A" font-family="ui-sans-serif, system-ui" font-size="28" font-weight="700">Client request</text>
  <text x="470" y="144" fill="#0F172A" font-family="ui-sans-serif, system-ui" font-size="28" font-weight="700">Engine pipeline</text>
  <text x="832" y="144" fill="#0F172A" font-family="ui-sans-serif, system-ui" font-size="28" font-weight="700">Resource output</text>
  <rect x="108" y="188" width="258" height="76" rx="18" fill="#F8FAFC" stroke="#CBD5E1"/>
  <rect x="108" y="282" width="258" height="76" rx="18" fill="#F8FAFC" stroke="#CBD5E1"/>
  <rect x="108" y="376" width="258" height="76" rx="18" fill="#F8FAFC" stroke="#CBD5E1"/>
  <rect x="108" y="470" width="258" height="76" rx="18" fill="#F8FAFC" stroke="#CBD5E1"/>
  <text x="132" y="232" fill="#0F172A" font-family="ui-sans-serif, system-ui" font-size="24" font-weight="600">filters</text>
  <text x="132" y="326" fill="#0F172A" font-family="ui-sans-serif, system-ui" font-size="24" font-weight="600">search</text>
  <text x="132" y="420" fill="#0F172A" font-family="ui-sans-serif, system-ui" font-size="24" font-weight="600">sorting</text>
  <text x="132" y="514" fill="#0F172A" font-family="ui-sans-serif, system-ui" font-size="24" font-weight="600">facets</text>
  <rect x="470" y="188" width="260" height="52" rx="16" fill="#E0F2FE"/>
  <rect x="470" y="258" width="260" height="52" rx="16" fill="#E2E8F0"/>
  <rect x="470" y="328" width="260" height="52" rx="16" fill="#E2E8F0"/>
  <rect x="470" y="398" width="260" height="52" rx="16" fill="#E0F2FE"/>
  <rect x="470" y="468" width="260" height="52" rx="16" fill="#E2E8F0"/>
  <text x="494" y="221" fill="#075985" font-family="ui-sans-serif, system-ui" font-size="20" font-weight="700">merge scope</text>
  <text x="494" y="291" fill="#334155" font-family="ui-sans-serif, system-ui" font-size="20" font-weight="700">normalize defaults</text>
  <text x="494" y="361" fill="#334155" font-family="ui-sans-serif, system-ui" font-size="20" font-weight="700">validate fields</text>
  <text x="494" y="431" fill="#075985" font-family="ui-sans-serif, system-ui" font-size="20" font-weight="700">select ids</text>
  <text x="494" y="501" fill="#334155" font-family="ui-sans-serif, system-ui" font-size="20" font-weight="700">hydrate rows</text>
  <path d="M386 226H448" stroke="#0284C7" stroke-width="5" stroke-linecap="round"/>
  <path d="M386 320H448" stroke="#0284C7" stroke-width="5" stroke-linecap="round"/>
  <path d="M386 414H448" stroke="#0284C7" stroke-width="5" stroke-linecap="round"/>
  <path d="M386 508H448" stroke="#0284C7" stroke-width="5" stroke-linecap="round"/>
  <path d="M748 294H810" stroke="#0284C7" stroke-width="5" stroke-linecap="round"/>
  <path d="M748 434H810" stroke="#0284C7" stroke-width="5" stroke-linecap="round"/>
  <rect x="832" y="212" width="260" height="92" rx="22" fill="#FFFFFF" stroke="#E2E8F0" stroke-width="2"/>
  <rect x="832" y="344" width="260" height="92" rx="22" fill="#FFFFFF" stroke="#E2E8F0" stroke-width="2"/>
  <rect x="832" y="476" width="260" height="92" rx="22" fill="#FFFFFF" stroke="#E2E8F0" stroke-width="2"/>
  <text x="860" y="252" fill="#0F172A" font-family="ui-sans-serif, system-ui" font-size="24" font-weight="700">rows</text>
  <text x="860" y="384" fill="#0F172A" font-family="ui-sans-serif, system-ui" font-size="24" font-weight="700">rowCount</text>
  <text x="860" y="516" fill="#0F172A" font-family="ui-sans-serif, system-ui" font-size="24" font-weight="700">facets</text>
</svg>
